<svg width="40" height="33" viewBox="0 0 40 33" fill="none" xmlns="http://www.w3.org/2000/svg">
<path d="M37.2857 14.5829V27.7506C37.2857 28.1726 37.191 28.5683 37.0015 28.9376C36.8121 29.3069 36.5532 29.6287 36.2248 29.903C35.8965 30.1773 35.5113 30.3936 35.0692 30.5519C34.6272 30.7102 34.1536 30.7893 33.6484 30.7893H6.97537C6.4702 30.7893 5.9966 30.7102 5.55458 30.5519C5.11255 30.3936 4.72736 30.1773 4.399 29.903C4.07064 29.6287 3.81173 29.3069 3.6223 28.9376C3.43286 28.5683 3.33814 28.1726 3.33814 27.7506V19.7265C3.33814 19.3361 3.34445 18.9827 3.35708 18.6661C3.36971 18.3496 3.38234 18.0384 3.39497 17.7324C3.4076 17.4264 3.41391 17.1099 3.41391 16.7828C3.41391 16.4557 3.38865 16.1022 3.33814 15.7224C3.31288 15.5008 3.27499 15.3004 3.22447 15.121C3.17396 14.9416 3.12344 14.7623 3.07292 14.5829C3.0224 14.4035 2.95926 14.2347 2.88348 14.0764C2.80771 13.9182 2.73824 13.7177 2.6751 13.475L1.33008 8.96444L34.2547 2.0957L36.6037 9.96152L14.4203 14.5829H37.2857ZM13.8141 8.44217L7.73313 9.70829L14.4014 12.4938L20.4824 11.2276L13.8141 8.44217ZM24.1007 10.4838L30.2007 9.20184L23.5324 6.43219L17.4324 7.69832L24.1007 10.4838ZM4.28533 10.5471L5.44091 14.3613L10.7831 13.2534L4.28533 10.5471ZM32.4929 4.54882L27.1507 5.67251L33.6295 8.37886L32.4929 4.54882ZM34.8609 16.6087H5.76296V27.7506C5.76296 28.0249 5.88294 28.2623 6.1229 28.4628C6.36285 28.6633 6.64701 28.7635 6.97537 28.7635H33.6484C33.9768 28.7635 34.261 28.6633 34.5009 28.4628C34.7409 28.2623 34.8609 28.0249 34.8609 27.7506V16.6087Z" fill="#D6D6D6"/>
</svg>
