<svg width="44" height="39" viewBox="0 0 44 39" fill="none" xmlns="http://www.w3.org/2000/svg">
<path d="M22.0344 28.8125C23.9447 28.8125 25.7768 28.0536 27.1276 26.7028C28.4784 25.352 29.2373 23.5199 29.2373 21.6096C29.2373 19.6993 28.4784 17.8672 27.1276 16.5164C25.7768 15.1656 23.9447 14.4067 22.0344 14.4067C20.1241 14.4067 18.292 15.1656 16.9412 16.5164C15.5904 17.8672 14.8315 19.6993 14.8315 21.6096C14.8315 23.5199 15.5904 25.352 16.9412 26.7028C18.292 28.0536 20.1241 28.8125 22.0344 28.8125Z" stroke="#9E9E9E" stroke-width="1.62064" stroke-linecap="round" stroke-linejoin="round"/>
<path d="M5.82764 28.8116V14.4059C5.82764 12.018 6.77622 9.72793 8.46472 8.03943C10.1532 6.35093 12.4433 5.40234 14.8312 5.40234H29.2369C31.6248 5.40234 33.9149 6.35093 35.6034 8.03943C37.2919 9.72793 38.2405 12.018 38.2405 14.4059V28.8116C38.2405 31.1995 37.2919 33.4896 35.6034 35.1781C33.9149 36.8666 31.6248 37.8152 29.2369 37.8152H14.8312C12.4433 37.8152 10.1532 36.8666 8.46472 35.1781C6.77622 33.4896 5.82764 31.1995 5.82764 28.8116Z" stroke="#9E9E9E" stroke-width="1.62064"/>
<path d="M31.9375 11.7243L31.9563 11.7036" stroke="#9E9E9E" stroke-width="1.62064" stroke-linecap="round" stroke-linejoin="round"/>
</svg>
