<svg width="38" height="37" viewBox="0 0 38 37" fill="none" xmlns="http://www.w3.org/2000/svg">
<g clip-path="url(#clip0_258_1659)">
<path d="M36.5547 37.2559L26.4707 27.1719M16.3867 32.2139C14.4004 32.2139 12.4334 31.8227 10.5983 31.0625C8.7631 30.3024 7.09562 29.1882 5.69104 27.7836C4.28647 26.379 3.17229 24.7116 2.41214 22.8764C1.65199 21.0412 1.26074 19.0743 1.26074 17.0879C1.26074 15.1015 1.65199 13.1346 2.41214 11.2994C3.17229 9.46427 4.28647 7.79679 5.69104 6.39222C7.09562 4.98764 8.7631 3.87346 10.5983 3.11331C12.4334 2.35316 14.4004 1.96191 16.3867 1.96191C20.3984 1.96191 24.2458 3.55554 27.0824 6.39222C29.9191 9.22889 31.5127 13.0762 31.5127 17.0879C31.5127 21.0996 29.9191 24.9469 27.0824 27.7836C24.2458 30.6203 20.3984 32.2139 16.3867 32.2139Z" stroke="#DDDDDD" stroke-width="1.35054"/>
</g>
<defs>
<clipPath id="clip0_258_1659">
<rect width="37.815" height="37.815" fill="white" transform="translate(0 0.701172)"/>
</clipPath>
</defs>
</svg>
