<svg width="35" height="35" viewBox="0 0 35 35" fill="none" xmlns="http://www.w3.org/2000/svg">
<g clip-path="url(#clip0_258_1665)">
<path fill-rule="evenodd" clip-rule="evenodd" d="M28.8194 7.24392C29.1753 7.09409 29.565 7.04242 29.9477 7.09427C30.3305 7.14613 30.6923 7.29963 30.9956 7.53879C31.2989 7.77795 31.5325 8.09402 31.6722 8.45412C31.8119 8.81422 31.8525 9.20518 31.7898 9.58629L28.5226 29.4042C28.2057 31.3159 26.1082 32.4121 24.355 31.4599C22.8885 30.6633 20.7104 29.4359 18.7512 28.1553C17.7716 27.5142 14.7709 25.4614 15.1397 24.0007C15.4566 22.7517 20.4986 18.0583 23.3798 15.2679C24.5106 14.1716 23.9949 13.5392 22.6595 14.5476C19.3418 17.0513 14.0189 20.8588 12.2585 21.9305C10.7056 22.8756 9.89601 23.0369 8.92795 22.8756C7.16181 22.5817 5.52388 22.1265 4.18703 21.5718C2.38055 20.8228 2.46843 18.3392 4.18559 17.616L28.8194 7.24392Z" fill="#9E9E9E"/>
</g>
<defs>
<clipPath id="clip0_258_1665">
<rect width="34.5737" height="34.5737" fill="white" transform="translate(0.328613 0.86084)"/>
</clipPath>
</defs>
</svg>
