<svg width="39" height="37" viewBox="0 0 39 37" fill="none" xmlns="http://www.w3.org/2000/svg">
<path d="M36.0417 10.1556C34.8284 10.7071 33.5207 11.0695 32.1656 11.2428C33.5522 10.4077 34.6236 9.08422 35.1278 7.49284C33.82 8.28065 32.3704 8.83212 30.8421 9.14724C29.5973 7.79221 27.8484 7.00439 25.8631 7.00439C22.1604 7.00439 19.1352 10.0296 19.1352 13.7638C19.1352 14.2995 19.1982 14.8195 19.3085 15.3079C13.6993 15.0243 8.70457 12.33 5.38 8.24914C4.79702 9.24178 4.46614 10.4077 4.46614 11.6367C4.46614 13.9844 5.64786 16.0642 7.47558 17.246C6.35689 17.246 5.31698 16.9308 4.40311 16.4581V16.5054C4.40311 19.7827 6.73504 22.5243 9.82326 23.1388C8.83177 23.4101 7.79086 23.4479 6.78231 23.2491C7.21026 24.5923 8.04838 25.7676 9.17886 26.6098C10.3093 27.452 11.6753 27.9188 13.0848 27.9445C10.6956 29.8359 7.73398 30.8583 4.68673 30.8436C4.15101 30.8436 3.6153 30.8121 3.07959 30.7491C6.07328 32.6713 9.63419 33.79 13.4472 33.79C25.8631 33.79 32.6856 23.4854 32.6856 14.5516C32.6856 14.2523 32.6856 13.9687 32.6698 13.6693C33.9933 12.7239 35.1278 11.5264 36.0417 10.1556Z" fill="#9E9E9E"/>
</svg>
